<?xml version="1.0" encoding="utf-8"?>
<!-- Generator: Adobe Illustrator 25.0.0, SVG Export Plug-In . SVG Version: 6.00 Build 0)  -->
<svg version="1.1" id="_x36_" xmlns="http://www.w3.org/2000/svg" xmlns:xlink="http://www.w3.org/1999/xlink" x="0px" y="0px"
	 viewBox="0 0 800 800" style="enable-background:new 0 0 800 800;" xml:space="preserve">
<style type="text/css">
	.st0{fill:#4786A1;}
	.st1{fill:#EDEDEC;}
	.st2{opacity:7.000000e-02;fill:#040000;enable-background:new    ;}
	.st3{fill:#FFFFFF;}
	.st4{fill:none;}
	.st5{opacity:6.000000e-02;fill:#FFFFFF;enable-background:new    ;}
</style>
<g>
	<g>
		<g>
			<path class="st0" d="M453.1,0L13.1,0C3,0-3.2,10.9,1.8,19.5L108.2,204l29.3-43.4l48.1,71.4l48.1-71.4l48.2,71.4l13.2-19.6
				l34.9-51.8l28.5,42.2L464.4,19.5C469.4,10.9,463.2,0,453.1,0z"/>
			<path class="st1" d="M108.2,203.9l29.3-43.3l48.1,71.3l48.1-71.3l48.2,71.3l13.2-19.5l28.6-42.4l6.3-9.4l28.5,42.2l-7.9,13.8
				l-4.4,7.5l-22.1,38.4l-73.3,126.9c-2.8,4.8-7,7.9-11.6,9.4c-8.7,2.7-18.8-0.4-24-9.4l-20-34.5l-75.4-130.8L108.2,203.9z"/>
		</g>
		<path class="st2" d="M173,0l280.1,0c10.1,0,16.3,10.8,11.3,19.5L358.6,202.8l-7.9,13.8l-4.4,7.5l-22.1,38.4l-9.4-16.2l-19.6-34
			L173,0z"/>
		<g>
			<path class="st0" d="M252.9,0l531.4,0c11.4,0,18.7,11.5,14.5,21.7c-0.3,0.6-0.5,1.2-0.9,1.9L670.2,244.9l-34.5-51L577.6,280
				l-58.2-86.1L461.3,280l-58.2-86.1l-35.3,52.5l-17.1-29.7l-26.9-46.7L239.3,23.6C233.2,13.1,240.7,0,252.9,0z"/>
			<path class="st3" d="M367.8,246.3l35.3-52.5l58.2,86.1l58.1-86.1l58.2,86.1l34.1-50.5l24-35.6l34.5,51l-14.9,25.7l-0.9,1.7
				L584,394.1l-44,76.1c-9.6,16.6-33.5,16.6-43,0l-8.5-14.8L381.8,270.5L367.8,246.3z"/>
		</g>
	</g>
	<polygon class="st4" points="233.8,160.6 233.8,160.6 263.3,204.3 	"/>
	<polygon class="st4" points="635.7,193.8 577.6,280 611.7,229.5 	"/>
	<path class="st5" d="M381.8,270.5l106.7,184.9l8.5,14.8c9.6,16.6,33.5,16.6,43,0l44-76.1l70.3-121.9l0.9-1.7l14.9-25.7L797.9,23.6
		c0.4-0.6,0.6-1.2,0.9-1.9C803,11.6,795.7,0,784.3,0l-143,0L377.8,263.5L381.8,270.5z M635.7,193.8l-24,35.6L577.6,280L635.7,193.8z
		"/>
</g>
</svg>
